<?xml version="1.0" standalone="no"?>
<!DOCTYPE svg PUBLIC "-//W3C//DTD SVG 20010904//EN"
 "http://www.w3.org/TR/2001/REC-SVG-20010904/DTD/svg10.dtd">
<svg version="1.0" xmlns="http://www.w3.org/2000/svg"
 width="1280.000000pt" height="640.000000pt" viewBox="0 0 1280.000000 640.000000"
 preserveAspectRatio="xMidYMid meet">
<metadata>
Created by potrace 1.15, written by Peter Selinger 2001-2017
</metadata>
<g transform="translate(0.000000,640.000000) scale(0.100000,-0.100000)"
fill="#000000" stroke="none">
<path d="M1099 4090 c-172 -29 -420 -145 -554 -261 -113 -97 -226 -279 -260
-420 -14 -55 -16 -94 -12 -168 8 -128 26 -193 97 -338 55 -112 68 -131 157
-221 185 -187 420 -296 748 -347 136 -21 403 -29 555 -17 115 10 173 22 410
87 l66 18 40 -26 c64 -43 162 -77 264 -92 124 -19 327 -19 407 0 60 14 68 14
180 -12 101 -23 141 -27 283 -27 188 -1 258 11 459 76 144 47 244 96 358 179
45 32 88 59 96 59 8 0 55 -18 104 -41 265 -122 442 -179 631 -204 273 -36 525
-4 692 87 281 154 428 381 432 670 2 112 -15 185 -68 290 -164 325 -458 519
-872 573 -296 39 -581 9 -872 -90 -219 -75 -284 -104 -446 -200 l-144 -86
-112 35 c-256 79 -509 73 -719 -18 -134 -58 -282 -175 -344 -271 -24 -37 -40
-51 -59 -53 -66 -5 -229 -107 -312 -193 -112 -118 -145 -181 -158 -304 -8 -66
13 -166 40 -197 15 -15 11 -18 -53 -37 -182 -54 -398 -90 -583 -98 -275 -11
-512 54 -747 204 -90 57 -139 101 -214 191 -118 142 -181 300 -183 457 -1 99
18 158 83 257 148 225 429 382 747 417 245 28 614 -71 762 -204 125 -112 186
-255 163 -379 -14 -75 -38 -112 -119 -186 -151 -136 -352 -199 -601 -187 -284
13 -487 141 -484 304 3 135 104 221 302 259 80 16 103 16 179 6 125 -18 272
-95 272 -142 0 -29 -50 -81 -98 -103 -30 -13 -77 -21 -144 -24 l-99 -6 3 -41
3 -41 120 1 c149 0 213 18 278 74 77 68 86 152 26 240 -57 84 -168 138 -336
166 -112 18 -169 18 -267 -1 -153 -29 -288 -121 -343 -233 -37 -75 -38 -186
-3 -276 51 -132 198 -256 375 -316 85 -28 118 -34 216 -38 285 -11 513 67 690
236 105 100 144 157 158 236 23 126 4 288 -44 371 -40 69 -108 151 -170 203
-110 91 -318 178 -500 207 -122 20 -343 18 -476 -5z m4251 -305 c205 -27 422
-120 535 -230 100 -98 143 -163 188 -287 34 -97 40 -125 40 -193 0 -215 -139
-429 -343 -527 -200 -95 -371 -123 -592 -95 -157 20 -229 41 -442 131 -87 37
-168 71 -180 75 -18 7 -13 12 40 39 33 17 115 62 182 101 l121 71 68 -31 c139
-63 301 -89 433 -70 107 16 153 33 218 82 130 99 147 266 41 414 -39 54 -151
138 -235 176 -121 55 -221 74 -389 72 -228 -1 -353 -32 -576 -142 l-106 -53
-58 38 c-33 20 -92 52 -132 71 -76 35 -83 46 -35 56 15 3 63 26 106 52 230
136 488 229 741 268 46 8 257 -3 375 -18z m-1755 -272 c33 -8 66 -18 74 -22 9
-6 -34 -42 -142 -120 -86 -61 -161 -111 -168 -111 -6 0 -42 9 -78 19 -72 22
-217 39 -353 43 -49 2 -88 6 -88 10 0 5 5 8 11 8 6 0 37 18 69 39 206 141 453
190 675 134z m500 -189 c147 -74 148 -75 94 -110 -24 -15 -88 -60 -141 -101
l-98 -73 -47 23 c-27 13 -92 41 -146 62 -53 21 -94 42 -89 47 19 19 298 208
307 208 6 0 60 -25 120 -56z m1210 20 c80 -21 184 -77 239 -128 69 -64 85
-153 41 -218 -68 -101 -265 -137 -455 -84 l-85 23 38 17 c91 38 171 56 248 56
78 0 79 0 94 31 21 39 10 52 -58 75 -40 13 -70 15 -141 11 -90 -6 -257 -42
-347 -74 l-46 -16 -124 74 c-68 41 -133 77 -143 82 -10 4 -17 9 -15 11 2 2 48
22 102 45 271 112 471 141 652 95z m-2232 -160 c62 -9 120 -19 129 -23 12 -4
-48 -51 -213 -169 -126 -90 -236 -165 -243 -168 -34 -13 -33 306 1 345 5 7
140 29 181 30 18 1 84 -6 145 -15z m1387 -69 c7 -9 60 -43 117 -77 57 -34 102
-65 101 -69 -6 -15 -283 -209 -293 -205 -23 9 -246 159 -242 163 12 11 293
203 298 203 4 0 12 -7 19 -15z m-1888 -88 c-5 -105 14 -193 49 -228 11 -11 19
-23 16 -25 -8 -8 -318 -164 -326 -164 -17 0 -34 91 -28 147 12 118 114 260
237 331 30 17 55 32 56 32 1 0 -1 -42 -4 -93z m1066 -1 c59 -24 131 -51 160
-61 30 -9 50 -21 45 -25 -4 -4 -123 -87 -264 -184 -281 -193 -455 -292 -497
-281 -31 8 -126 68 -172 109 -19 17 -46 38 -60 47 l-25 16 110 56 c61 31 214
125 340 211 127 85 236 155 243 155 7 1 61 -19 120 -43z m521 -270 l143 -73
-104 -57 c-281 -153 -401 -200 -583 -226 -68 -9 -265 -3 -265 9 0 3 39 26 87
51 105 54 263 154 438 278 72 51 133 92 136 92 3 0 70 -33 148 -74z m-1394
-226 c28 -28 67 -62 87 -77 21 -14 35 -30 31 -36 -3 -6 -49 -8 -122 -4 -87 4
-136 11 -198 31 -46 15 -83 30 -83 34 1 7 205 98 225 101 6 0 33 -22 60 -49z"/>
<path d="M11174 4094 c-172 -29 -392 -122 -494 -209 -58 -51 -127 -134 -165
-200 -48 -83 -67 -245 -44 -371 14 -78 51 -134 158 -237 177 -170 404 -247
696 -234 104 5 133 10 219 40 116 42 189 88 270 170 66 68 103 139 119 231 35
207 -130 381 -406 427 -93 16 -242 2 -351 -31 -236 -74 -327 -258 -188 -381
64 -56 129 -73 277 -74 l120 0 3 41 3 41 -99 6 c-67 3 -114 11 -144 24 -48 22
-98 74 -98 103 0 48 145 124 271 141 75 11 98 10 180 -5 200 -39 301 -126 302
-261 2 -162 -202 -289 -484 -302 -187 -9 -333 21 -482 100 -65 34 -175 131
-206 181 -33 52 -44 129 -30 209 20 125 141 273 279 342 183 91 473 147 653
124 107 -13 301 -71 389 -115 190 -96 361 -272 415 -427 51 -146 -7 -384 -132
-547 -110 -142 -228 -235 -409 -320 -121 -58 -206 -84 -346 -106 -203 -33
-539 2 -823 87 -64 19 -68 22 -53 37 17 19 46 122 46 162 -1 65 -31 166 -67
219 -50 77 -137 166 -206 213 -67 46 -175 98 -207 101 -15 1 -33 19 -54 52
-60 93 -209 210 -343 269 -212 94 -479 100 -736 17 l-97 -32 -108 64 c-174
104 -194 114 -298 155 -398 158 -706 203 -1059 156 -415 -55 -704 -245 -870
-573 -54 -107 -68 -168 -67 -282 1 -284 148 -521 414 -667 133 -73 299 -112
482 -112 284 0 474 48 845 214 57 25 110 46 119 46 8 0 44 -22 81 -49 147
-109 293 -175 512 -231 103 -26 150 -33 274 -37 140 -5 160 -3 300 26 143 29
152 30 205 16 71 -19 273 -19 407 0 106 15 200 47 268 92 l39 26 61 -17 c314
-87 424 -102 700 -93 463 15 815 146 1039 389 62 67 88 106 136 203 33 66 67
147 75 180 25 94 31 248 11 323 -35 137 -131 297 -242 404 -89 84 -278 191
-439 246 -143 49 -441 67 -621 36z m-3252 -318 c221 -51 408 -125 603 -240 41
-25 94 -50 117 -56 l40 -11 -104 -53 c-57 -28 -119 -63 -137 -75 l-33 -24 -96
48 c-233 115 -359 147 -587 148 -124 1 -165 -2 -237 -20 -277 -70 -458 -241
-458 -432 0 -73 47 -160 112 -210 65 -49 111 -66 218 -82 132 -19 294 7 433
70 l68 31 102 -61 c56 -33 137 -77 179 -97 42 -20 77 -39 77 -42 1 -8 -290
-127 -403 -166 -193 -66 -444 -80 -621 -33 -280 73 -446 215 -525 450 -63 186
10 435 179 608 85 87 174 142 303 189 124 46 182 60 298 71 58 6 121 13 140
15 75 9 230 -5 332 -28z m1518 -246 c151 -18 258 -58 391 -146 37 -24 72 -44
78 -44 6 0 11 -3 11 -8 0 -4 -46 -9 -103 -10 -123 -4 -278 -24 -363 -48 l-60
-17 -161 114 c-89 63 -160 115 -158 117 13 14 155 41 265 51 9 0 54 -4 100 -9z
m-487 -260 c81 -56 147 -103 145 -105 -2 -1 -46 -19 -98 -40 -52 -21 -117 -48
-144 -61 l-49 -24 -76 58 c-42 32 -105 78 -140 101 -56 38 -61 45 -48 58 27
27 222 123 242 120 11 -2 87 -50 168 -107z m-1213 85 c124 -17 173 -30 343
-97 114 -45 152 -68 113 -68 -7 0 -71 -35 -142 -77 l-129 -78 -80 27 c-227 76
-433 88 -505 30 -22 -18 -22 -19 -6 -50 16 -32 17 -32 97 -32 64 0 100 -6 175
-32 52 -17 94 -35 94 -38 0 -13 -126 -43 -201 -48 -246 -15 -394 97 -334 254
41 107 252 214 440 222 17 1 77 -5 135 -13z m2177 -166 c43 -7 83 -16 90 -21
6 -5 19 -41 28 -80 16 -63 16 -81 5 -170 -10 -75 -17 -98 -27 -94 -7 3 -117
79 -243 168 -260 183 -252 167 -95 192 116 18 148 18 242 5z m-1445 -160 c73
-51 137 -96 141 -99 7 -6 -204 -153 -238 -166 -10 -4 -287 190 -293 205 -1 5
44 36 102 70 58 34 110 69 117 77 7 8 18 13 25 10 7 -3 73 -46 146 -97z m1873
-25 c107 -104 156 -240 125 -349 -7 -25 -17 -45 -22 -45 -13 0 -298 145 -323
164 -18 14 -19 15 -2 16 12 0 26 17 40 48 19 40 22 65 22 163 l0 116 49 -26
c26 -14 76 -53 111 -87z m-843 -102 c139 -92 292 -185 340 -207 48 -22 86 -43
85 -46 -7 -22 -211 -165 -249 -174 -42 -11 -220 90 -501 284 -142 99 -260 181
-263 184 -3 3 23 14 58 26 35 12 106 39 158 61 52 22 101 40 107 40 7 0 126
-75 265 -168z m-666 -129 c165 -119 383 -260 476 -308 54 -27 98 -53 98 -56 0
-12 -197 -18 -265 -9 -182 26 -306 75 -594 232 l-93 51 138 72 c77 40 144 74
150 74 6 1 47 -25 90 -56z m1336 -243 c59 -25 108 -48 108 -52 0 -4 -37 -19
-82 -34 -64 -20 -111 -27 -205 -32 -79 -3 -123 -1 -123 5 0 6 17 22 38 36 20
15 59 49 87 77 27 28 54 49 60 48 5 -2 58 -23 117 -48z"/>
</g>
</svg>
